<svg width="24" height="24" viewBox="0 0 24 24" fill="none" xmlns="http://www.w3.org/2000/svg">
<path d="M22.0192 16.8201L18.8892 9.50009C18.3192 8.16009 17.4692 7.40009 16.4992 7.35009C15.5392 7.30009 14.6092 7.97009 13.8992 9.25009L11.9992 12.6601C11.5992 13.3801 11.0292 13.8101 10.4092 13.8601C9.77916 13.9201 9.14916 13.5901 8.63916 12.9401L8.41916 12.6601C7.70916 11.7701 6.82916 11.3401 5.92916 11.4301C5.02916 11.5201 4.25916 12.1401 3.74916 13.1501L2.01916 16.6001C1.39916 17.8501 1.45916 19.3001 2.18916 20.4801C2.91916 21.6601 4.18916 22.3701 5.57916 22.3701H18.3392C19.6792 22.3701 20.9292 21.7001 21.6692 20.5801C22.4292 19.4601 22.5492 18.0501 22.0192 16.8201ZM6.97016 8.38109C7.86659 8.38109 8.72631 8.02499 9.36018 7.39111C9.99405 6.75724 10.3502 5.89753 10.3502 5.00109C10.3502 4.10466 9.99405 3.24495 9.36018 2.61107C8.72631 1.9772 7.86659 1.62109 6.97016 1.62109C6.07373 1.62109 5.21401 1.9772 4.58014 2.61107C3.94627 3.24495 3.59016 4.10466 3.59016 5.00109C3.59016 5.89753 3.94627 6.75724 4.58014 7.39111C5.21401 8.02499 6.07373 8.38109 6.97016 8.38109Z" fill="#35FF9E"/>
</svg>
