<svg width="16" height="16" viewBox="0 0 16 16" fill="none" xmlns="http://www.w3.org/2000/svg">
<path d="M11.3333 1.33325H4.66666C2.82666 1.33325 1.33333 2.81992 1.33333 4.65325V9.30659C1.33333 11.1399 2.82666 12.6266 4.66666 12.6266H5.66666C5.84666 12.6266 6.08666 12.7466 6.19999 12.8933L7.19999 14.2199C7.63999 14.8066 8.35999 14.8066 8.79999 14.2199L9.79999 12.8933C9.92666 12.7266 10.1267 12.6266 10.3333 12.6266H11.3333C13.1733 12.6266 14.6667 11.1399 14.6667 9.30659V4.65325C14.6667 2.81992 13.1733 1.33325 11.3333 1.33325ZM5.33333 7.99992C4.95999 7.99992 4.66666 7.69992 4.66666 7.33325C4.66666 6.96659 4.96666 6.66659 5.33333 6.66659C5.69999 6.66659 5.99999 6.96659 5.99999 7.33325C5.99999 7.69992 5.70666 7.99992 5.33333 7.99992ZM7.99999 7.99992C7.62666 7.99992 7.33333 7.69992 7.33333 7.33325C7.33333 6.96659 7.63333 6.66659 7.99999 6.66659C8.36666 6.66659 8.66666 6.96659 8.66666 7.33325C8.66666 7.69992 8.37333 7.99992 7.99999 7.99992ZM10.6667 7.99992C10.2933 7.99992 9.99999 7.69992 9.99999 7.33325C9.99999 6.96659 10.3 6.66659 10.6667 6.66659C11.0333 6.66659 11.3333 6.96659 11.3333 7.33325C11.3333 7.69992 11.04 7.99992 10.6667 7.99992Z" fill="#B5B5B5"/>
</svg>
