<svg width="16" height="16" viewBox="0 0 16 16" fill="none" xmlns="http://www.w3.org/2000/svg">
<path d="M10.96 2.06812C9.75334 2.06812 8.67334 2.65478 8.00001 3.55478C7.6561 3.09399 7.20951 2.71971 6.6957 2.46164C6.18189 2.20358 5.61499 2.06884 5.04001 2.06812C2.99334 2.06812 1.33334 3.73478 1.33334 5.79478C1.33334 6.58812 1.46001 7.32145 1.68001 8.00145C2.73334 11.3348 5.98001 13.3281 7.58668 13.8748C7.81334 13.9548 8.18668 13.9548 8.41334 13.8748C10.02 13.3281 13.2667 11.3348 14.32 8.00145C14.54 7.32145 14.6667 6.58812 14.6667 5.79478C14.6667 3.73478 13.0067 2.06812 10.96 2.06812Z" fill="#B5B5B5"/>
</svg>
