<svg width="16" height="16" viewBox="0 0 16 16" fill="none" xmlns="http://www.w3.org/2000/svg">
<path d="M10.96 2.06812C9.75337 2.06812 8.67337 2.65478 8.00004 3.55478C7.65613 3.09399 7.20954 2.71971 6.69573 2.46164C6.18192 2.20358 5.61502 2.06884 5.04004 2.06812C2.99337 2.06812 1.33337 3.73478 1.33337 5.79478C1.33337 6.58812 1.46004 7.32145 1.68004 8.00145C2.73337 11.3348 5.98004 13.3281 7.58671 13.8748C7.81337 13.9548 8.18671 13.9548 8.41337 13.8748C10.02 13.3281 13.2667 11.3348 14.32 8.00145C14.54 7.32145 14.6667 6.58812 14.6667 5.79478C14.6667 3.73478 13.0067 2.06812 10.96 2.06812Z" fill="#D9D9D9"/>
</svg>
