<svg width="16" height="16" viewBox="0 0 16 16" fill="none" xmlns="http://www.w3.org/2000/svg">
<path d="M14.3527 10.62C14.246 10.44 13.946 10.16 13.1993 10.2933C12.786 10.3667 12.366 10.4 11.946 10.38C11.1969 10.346 10.4623 10.1621 9.78552 9.83922C9.10876 9.5163 8.50366 9.06091 8.00601 8.5C7.13935 7.53333 6.60601 6.27333 6.59935 4.91333C6.59935 4.15333 6.74601 3.42 7.04601 2.72666C7.33935 2.05333 7.13268 1.7 6.98601 1.55333C6.83268 1.4 6.47268 1.18666 5.76601 1.48C3.03935 2.62666 1.35268 5.36 1.55268 8.28666C1.75268 11.04 3.68601 13.3933 6.24601 14.28C6.86665 14.4965 7.51589 14.6201 8.17268 14.6467C8.27935 14.6533 8.38601 14.66 8.49268 14.66C10.726 14.66 12.8193 13.6067 14.1393 11.8133C14.586 11.1933 14.466 10.8 14.3527 10.62Z" fill="#A0A0A0"/>
</svg>
