<svg width="16" height="16" viewBox="0 0 16 16" fill="none" xmlns="http://www.w3.org/2000/svg">
<path d="M12.8933 9.66003L12.2266 8.55336C12.0866 8.30669 11.96 7.84003 11.96 7.56669V5.88002C11.9592 5.13605 11.7478 4.4075 11.3502 3.77867C10.9526 3.14985 10.3851 2.64644 9.71332 2.32669C9.54186 2.02225 9.29178 1.76945 8.98921 1.59472C8.68664 1.41998 8.3427 1.32971 7.99332 1.33336C7.26665 1.33336 6.61332 1.72669 6.26665 2.34669C4.96665 2.99336 4.06665 4.33336 4.06665 5.88002V7.56669C4.06665 7.84003 3.93998 8.30669 3.79998 8.54669L3.12665 9.66003C2.85998 10.1067 2.79998 10.6 2.96665 11.0534C3.12665 11.5 3.50665 11.8467 3.99998 12.0134C5.29332 12.4534 6.65332 12.6667 8.01332 12.6667C9.37332 12.6667 10.7333 12.4534 12.0266 12.02C12.4933 11.8667 12.8533 11.5134 13.0266 11.0534C13.2 10.5934 13.1533 10.0867 12.8933 9.66003ZM9.88665 13.34C9.74645 13.7281 9.49017 14.0637 9.15262 14.301C8.81507 14.5384 8.41263 14.666 7.99998 14.6667C7.47332 14.6667 6.95332 14.4534 6.58665 14.0734C6.37332 13.8734 6.21332 13.6067 6.11998 13.3334C6.20665 13.3467 6.29332 13.3534 6.38665 13.3667C6.53998 13.3867 6.69998 13.4067 6.85998 13.42C7.23998 13.4534 7.62665 13.4734 8.01332 13.4734C8.39332 13.4734 8.77332 13.4534 9.14665 13.42C9.28665 13.4067 9.42665 13.4 9.55998 13.38L9.88665 13.34Z" fill="#A0A0A0"/>
</svg>
