<svg width="16" height="16" viewBox="0 0 16 16" fill="none" xmlns="http://www.w3.org/2000/svg">
<path d="M13.4 6.14727C12.1933 6.14727 11.7 5.29394 12.3 4.24728C12.6466 3.64061 12.44 2.86728 11.8333 2.52061L10.68 1.86061C10.1533 1.54728 9.47331 1.73394 9.15998 2.26061L9.08665 2.38728C8.48665 3.43394 7.49998 3.43394 6.89331 2.38728L6.81998 2.26061C6.74811 2.1346 6.6519 2.02413 6.53695 1.93565C6.42199 1.84717 6.29059 1.78243 6.15038 1.74521C6.01017 1.70799 5.86396 1.69902 5.72026 1.71883C5.57655 1.73864 5.43822 1.78684 5.31331 1.86061L4.15998 2.52061C3.55331 2.86728 3.34665 3.64728 3.69331 4.25394C4.29998 5.29394 3.80665 6.14727 2.59998 6.14727C1.90665 6.14727 1.33331 6.71394 1.33331 7.41394V8.58727C1.33331 9.28061 1.89998 9.85394 2.59998 9.85394C3.80665 9.85394 4.29998 10.7073 3.69331 11.7539C3.34665 12.3606 3.55331 13.1339 4.15998 13.4806L5.31331 14.1406C5.83998 14.4539 6.51998 14.2673 6.83331 13.7406L6.90665 13.6139C7.50665 12.5673 8.49331 12.5673 9.09998 13.6139L9.17331 13.7406C9.48665 14.2673 10.1666 14.4539 10.6933 14.1406L11.8466 13.4806C12.4533 13.1339 12.66 12.3539 12.3133 11.7539C11.7066 10.7073 12.2 9.85394 13.4066 9.85394C14.1 9.85394 14.6733 9.28727 14.6733 8.58727V7.41394C14.6698 7.07793 14.5343 6.75677 14.2961 6.51979C14.0579 6.28281 13.736 6.14901 13.4 6.14727ZM7.99998 10.1673C6.80665 10.1673 5.83331 9.19394 5.83331 8.00061C5.83331 6.80728 6.80665 5.83394 7.99998 5.83394C9.19331 5.83394 10.1666 6.80728 10.1666 8.00061C10.1666 9.19394 9.19331 10.1673 7.99998 10.1673Z" fill="#A0A0A0"/>
</svg>
