<svg width="14" height="14" viewBox="0 0 14 14" fill="none" xmlns="http://www.w3.org/2000/svg">
<path d="M9.79334 0.333252H4.20668C1.78001 0.333252 0.333344 1.77992 0.333344 4.20658V9.78658C0.333344 12.2199 1.78001 13.6666 4.20668 13.6666H9.78668C12.2133 13.6666 13.66 12.2199 13.66 9.79325V4.20658C13.6667 1.77992 12.22 0.333252 9.79334 0.333252ZM4.66668 3.25325C5.35334 3.25325 5.92001 3.81325 5.92001 4.50659C5.92001 5.19992 5.36001 5.75992 4.66668 5.75992C3.97334 5.75992 3.41334 5.18658 3.41334 4.49992C3.41334 3.81325 3.98001 3.25325 4.66668 3.25325ZM7.00001 11.7199C5.20668 11.7199 3.74668 10.2599 3.74668 8.46658C3.74668 7.99992 4.12668 7.61325 4.59334 7.61325H9.39334C9.86001 7.61325 10.24 7.99325 10.24 8.46658C10.2533 10.2599 8.79334 11.7199 7.00001 11.7199ZM9.33334 5.74658C8.64668 5.74658 8.08001 5.18658 8.08001 4.49325C8.08001 3.79992 8.64001 3.23992 9.33334 3.23992C10.0267 3.23992 10.5867 3.79992 10.5867 4.49325C10.5867 5.18658 10.02 5.74658 9.33334 5.74658Z" fill="#F97B22"/>
</svg>
