<svg width="19" height="17" viewBox="0 0 19 17" fill="none" xmlns="http://www.w3.org/2000/svg">
<path d="M13.5996 6.02722L7.15727 2.99555C2.8298 0.955552 1.05365 2.62722 3.22115 6.70013L3.87592 7.93264C4.06407 8.29389 4.06407 8.7118 3.87592 9.07305L3.22115 10.2985C1.05365 14.3714 2.82227 16.0431 7.15727 14.0031L13.5996 10.9714C16.4896 9.61139 16.4896 7.38722 13.5996 6.02722ZM11.1687 9.03055H7.10459C6.79602 9.03055 6.54014 8.78972 6.54014 8.4993C6.54014 8.20889 6.79602 7.96805 7.10459 7.96805H11.1687C11.4772 7.96805 11.7331 8.20889 11.7331 8.4993C11.7331 8.78972 11.4772 9.03055 11.1687 9.03055Z" fill="#F97B22"/>
</svg>
